<?xml version="1.0" standalone="no"?>
<!DOCTYPE svg PUBLIC "-//W3C//DTD SVG 20010904//EN"
 "http://www.w3.org/TR/2001/REC-SVG-20010904/DTD/svg10.dtd">
<svg version="1.0" xmlns="http://www.w3.org/2000/svg"
 width="1484.000000pt" height="1484.000000pt" viewBox="0 0 1484.000000 1484.000000"
 preserveAspectRatio="xMidYMid meet">
<metadata>
Created by potrace 1.11, written by Peter Selinger 2001-2013
</metadata>
<g transform="translate(0.000000,1484.000000) scale(0.100000,-0.100000)"
fill="#000000" stroke="none">
<path d="M5709 13120 c-53 -16 -123 -76 -156 -134 -19 -33 -16 -81 7 -101 19
-17 21 -17 69 29 28 25 58 47 68 48 10 0 25 2 33 3 8 0 25 -3 37 -8 20 -9 22
-16 19 -68 -5 -76 -22 -96 -150 -184 -56 -38 -131 -91 -167 -116 -35 -26 -92
-58 -127 -72 -97 -39 -168 -86 -247 -162 -109 -105 -127 -156 -129 -358 -1
-99 -5 -130 -16 -137 -30 -19 -77 32 -87 92 -8 55 -34 72 -106 72 -77 0 -120
-22 -161 -83 -38 -57 -78 -80 -130 -76 -24 2 -50 -3 -64 -11 -20 -13 -22 -20
-16 -61 3 -26 12 -56 20 -68 16 -24 9 -37 -32 -58 -39 -20 -78 -65 -110 -128
-32 -63 -53 -76 -145 -83 -101 -8 -169 -29 -221 -69 -42 -32 -43 -35 -48 -99
-4 -53 -11 -75 -36 -110 -17 -24 -43 -70 -58 -103 -16 -33 -47 -87 -69 -120
-23 -34 -44 -79 -49 -105 -10 -54 -32 -75 -104 -96 -30 -8 -58 -23 -63 -32
-11 -22 -14 -139 -6 -186 9 -44 56 -95 96 -103 16 -3 31 -9 34 -13 6 -10 -63
-43 -165 -80 -88 -32 -223 -92 -368 -162 -64 -31 -102 -60 -166 -122 -113
-111 -137 -150 -185 -311 -16 -55 -43 -143 -59 -196 -23 -75 -29 -117 -30
-193 -2 -86 0 -96 16 -96 17 0 31 13 65 60 18 25 18 24 12 -60 -4 -47 -9 -87
-10 -90 -2 -3 3 -21 11 -40 58 -134 83 -160 150 -160 28 0 44 -5 45 -12 1 -7
1 -53 1 -101 -1 -89 -16 -142 -60 -205 -42 -62 -61 -129 -57 -204 3 -60 24
-222 37 -278 2 -8 -9 -20 -24 -27 -16 -8 -28 -22 -29 -31 -8 -120 -5 -223 8
-266 8 -27 16 -58 18 -69 3 -10 6 -26 9 -35 12 -40 17 -106 21 -237 2 -77 7
-156 10 -175 6 -36 79 -174 116 -220 15 -19 21 -46 25 -105 3 -44 12 -95 21
-114 53 -116 153 -385 153 -413 0 -28 47 -106 87 -142 90 -82 100 -92 125
-126 25 -36 72 -144 82 -191 8 -35 14 -81 21 -159 7 -73 22 -110 66 -160 17
-19 55 -71 84 -114 30 -44 103 -129 162 -190 122 -124 179 -196 255 -318 56
-91 191 -325 246 -428 59 -110 98 -156 159 -186 81 -40 121 -90 201 -253 83
-169 123 -221 203 -259 25 -12 65 -25 90 -28 24 -3 49 -7 56 -9 9 -3 11 -46 9
-172 -3 -92 -6 -176 -8 -186 -4 -17 -33 -18 -564 -19 -307 0 -667 3 -799 8
-263 9 -897 9 -958 -1 -40 -6 -291 -127 -302 -145 -4 -6 -48 -31 -98 -56 -51
-25 -119 -61 -152 -79 -33 -19 -107 -53 -165 -76 -58 -23 -132 -55 -164 -71
-33 -15 -64 -28 -69 -28 -5 0 -117 -55 -250 -122 -133 -67 -285 -143 -337
-169 -61 -31 -124 -54 -175 -64 -95 -19 -128 -34 -178 -80 -21 -19 -43 -35
-48 -35 -18 0 -143 -78 -172 -107 -15 -15 -32 -45 -37 -65 -6 -20 -22 -50 -35
-66 -14 -17 -25 -33 -25 -37 0 -4 -15 -33 -34 -64 -18 -31 -40 -76 -49 -101
-30 -85 -59 -191 -54 -196 2 -3 1 -22 -4 -42 -5 -20 -11 -86 -15 -147 -3 -60
-7 -128 -10 -150 -2 -22 -6 -143 -9 -270 -6 -227 -6 -230 -35 -290 -36 -76
-104 -155 -191 -224 l-69 -55 0 -403 0 -403 6733 0 6732 0 -50 48 c-27 26 -79
72 -115 102 -35 30 -71 62 -80 70 -8 8 -56 49 -105 90 -50 41 -94 80 -100 86
-5 6 -53 46 -105 89 -52 43 -97 81 -100 84 -3 4 -30 26 -60 51 -30 25 -59 50
-65 56 -5 5 -48 42 -95 81 l-85 71 2 120 c2 123 -6 171 -44 267 -27 66 -49
199 -57 330 -6 112 -18 124 -252 245 -266 139 -402 224 -522 329 -36 32 -81
56 -159 86 -170 65 -233 96 -284 140 -26 22 -65 46 -86 54 -21 7 -74 31 -118
54 -331 168 -391 204 -414 252 -24 49 -152 168 -221 204 -36 18 -104 57 -151
87 -47 30 -91 54 -96 54 -6 0 -32 21 -59 46 -40 37 -54 44 -76 40 -16 -3 -28
-2 -28 3 0 5 -15 14 -32 21 -18 7 -46 18 -63 25 -113 49 -428 153 -508 168
-87 16 -245 15 -289 -2 -27 -10 -28 -9 -29 22 0 17 -3 43 -6 57 -11 58 -2 561
12 615 11 43 62 144 93 185 15 19 56 67 93 105 37 39 89 97 116 130 47 56 135
143 193 190 217 175 250 198 443 299 377 197 471 284 517 475 20 85 14 303
-15 546 -2 17 -7 57 -10 90 -4 33 -9 74 -12 90 -9 59 -12 532 -3 566 15 61 34
242 34 339 0 69 -9 177 -18 225 -4 23 -16 97 -21 135 -11 78 -29 183 -42 240
-8 36 -16 72 -18 81 -12 59 -54 170 -101 267 -79 162 -87 234 -43 376 29 95
30 204 2 266 -11 25 -44 74 -73 110 -69 85 -85 125 -100 245 -6 55 -13 111
-15 125 -2 14 -7 53 -10 87 -3 34 -7 70 -9 80 -2 10 -7 54 -10 98 -10 121 -15
153 -37 238 -11 43 -17 82 -14 86 2 5 -4 20 -15 34 -11 13 -33 53 -49 88 -118
256 -118 258 -216 361 -31 32 -77 94 -102 136 -26 42 -58 93 -72 112 -32 43
-104 133 -112 140 -4 3 -14 21 -22 41 l-15 37 79 4 c122 7 141 34 141 197 l1
84 43 43 c24 23 45 48 45 56 1 7 3 54 4 105 2 80 0 95 -17 110 -32 29 -58 26
-106 -12 -51 -39 -64 -42 -86 -19 -28 27 -19 67 24 109 64 62 77 131 55 288
-11 81 -67 147 -180 212 -108 61 -196 72 -436 50 -72 -7 -77 -6 -92 15 -20 28
-9 52 53 119 50 54 84 118 99 189 23 108 9 172 -49 230 -53 52 -110 78 -190
86 -36 4 -77 9 -90 11 -28 6 -127 12 -332 20 -177 8 -205 -3 -263 -94 -44 -69
-65 -79 -128 -61 -23 6 -55 14 -72 16 -16 3 -44 7 -62 10 -68 10 -79 53 -36
143 42 89 39 112 -24 181 -27 31 -35 49 -37 82 -4 79 -28 96 -102 71 -75 -26
-152 -118 -162 -196 -10 -84 -45 -127 -102 -127 -43 0 -67 27 -122 132 -51
101 -116 192 -167 235 -37 32 -110 31 -148 -1 -28 -24 -29 -29 -33 -146 0 -8
-10 6 -22 30 -29 56 -58 72 -123 66 -59 -5 -184 -72 -277 -148 -31 -25 -73
-51 -93 -58 -72 -24 -157 7 -209 75 -15 19 -34 35 -42 35 -8 0 -35 -19 -60
-42 -37 -34 -49 -40 -62 -31 -14 9 -17 29 -18 129 0 129 -11 169 -57 215 -43
42 -131 60 -198 39z m1145 -492 c-3 -24 -7 -69 -9 -100 -4 -85 -28 -105 -85
-71 -41 24 -51 52 -32 86 9 15 23 29 32 32 8 3 33 25 55 49 22 25 41 45 43 45
2 1 0 -18 -4 -41z"/>
</g>
</svg>
